<svg width="125" height="125" viewBox="0 0 125 125" fill="none" xmlns="http://www.w3.org/2000/svg">
<circle cx="33.5" cy="44.5" r="28.5" fill="#DBB83C" stroke="white" stroke-width="2"/>
<path d="M104.173 56.25C103.933 38.127 89.1875 22.9166 71.0084 22.9166C59.4271 22.9166 48.5521 29.177 42.548 38.2C39.9105 36.4437 36.7417 35.4166 33.3334 35.4166C24.1292 35.4166 16.6667 42.8791 16.6667 52.0833C16.6667 52.402 16.6959 52.7125 16.7146 53.0291C16.6938 53.4083 16.6667 53.7916 16.6667 54.1666C8.35837 58.15 2.08337 67.6187 2.08337 77.4062C2.08337 90.9791 13.1875 102.083 26.7605 102.083H77.8167C78.1042 102.083 78.3834 102.05 78.6667 102.04C78.9521 102.05 79.2313 102.083 79.5188 102.083H99.9417C112.577 102.083 122.917 91.7437 122.917 79.1083C122.917 67.9187 114.804 58.252 104.173 56.25Z" fill="#7FABDA" stroke="#FAFAFA" stroke-width="2" stroke-miterlimit="10" stroke-linecap="round"/>
<path d="M104.173 56.2511C104.173 56.2511 98.8917 55.4674 93.75 56.2511Z" fill="#7FABDA"/>
<path d="M104.173 56.2511C104.173 56.2511 98.8917 55.4674 93.75 56.2511" stroke="#FAFAFA" stroke-width="2" stroke-miterlimit="10" stroke-linecap="round"/>
<path d="M16.6666 52.0833C16.6666 42.8791 24.1291 35.4166 33.3333 35.4166C42.5375 35.4166 50 42.8791 50 52.0833" fill="#7FABDA"/>
<path d="M16.6666 52.0833C16.6666 42.8791 24.1291 35.4166 33.3333 35.4166C42.5375 35.4166 50 42.8791 50 52.0833" stroke="#FAFAFA" stroke-width="2" stroke-miterlimit="10" stroke-linecap="round"/>
</svg>
