<svg width="125" height="125" viewBox="0 0 125 125" fill="none" xmlns="http://www.w3.org/2000/svg">
<path d="M104.173 56.25C103.933 38.1271 89.1875 22.9167 71.0083 22.9167C59.4271 22.9167 48.5521 29.1771 42.5479 38.2C39.9104 36.4438 36.7416 35.4167 33.3333 35.4167C24.1291 35.4167 16.6666 42.8792 16.6666 52.0834C16.6666 52.4021 16.6958 52.7125 16.7146 53.0292C16.6937 53.4084 16.6666 53.7917 16.6666 54.1667C8.35831 58.15 2.08331 67.6188 2.08331 77.4063C2.08331 90.9792 13.1875 102.083 26.7604 102.083H77.8166C78.1041 102.083 78.3833 102.05 78.6666 102.04C78.9521 102.05 79.2312 102.083 79.5187 102.083H99.9416C112.577 102.083 122.917 91.7438 122.917 79.1084C122.917 67.9188 114.804 58.2521 104.173 56.25Z" fill="#7FABDA" stroke="#FAFAFA" stroke-width="2" stroke-miterlimit="10" stroke-linecap="round"/>
<path d="M104.173 56.2511C104.173 56.2511 98.8917 55.4674 93.75 56.2511Z" fill="#7FABDA"/>
<path d="M104.173 56.2511C104.173 56.2511 98.8917 55.4674 93.75 56.2511" stroke="#FAFAFA" stroke-width="2" stroke-miterlimit="10" stroke-linecap="round"/>
<path d="M16.6667 52.0834C16.6667 42.8792 24.1292 35.4167 33.3334 35.4167C42.5375 35.4167 50 42.8792 50 52.0834" fill="#7FABDA"/>
<path d="M16.6667 52.0834C16.6667 42.8792 24.1292 35.4167 33.3334 35.4167C42.5375 35.4167 50 42.8792 50 52.0834" stroke="#FAFAFA" stroke-width="2" stroke-miterlimit="10" stroke-linecap="round"/>
</svg>
