<svg width="123" height="126" viewBox="0 0 123 126" fill="none" xmlns="http://www.w3.org/2000/svg">
<path d="M21.8326 87H17V99.8051H21.8326V87Z" fill="#96E0DE"/>
<path d="M21.8326 104.836H17V125.696H21.8326V104.836Z" fill="#96E0DE"/>
<path d="M32.2101 87H27.3775V125.696H32.2101V87Z" fill="#96E0DE"/>
<path d="M42.5902 87H37.7576V107.557H42.5902V87Z" fill="#96E0DE"/>
<path d="M42.5902 112.324H37.7576V125.696H42.5902V112.324Z" fill="#96E0DE"/>
<path d="M52.9677 87H48.1351V125.696H52.9677V87Z" fill="#96E0DE"/>
<path d="M73.723 114.482H68.8904V125.696H73.723V114.482Z" fill="#96E0DE"/>
<path d="M73.723 87H68.8904V109.514H73.723V87Z" fill="#96E0DE"/>
<path d="M63.3455 87H58.5129V95.2099H63.3455V87Z" fill="#96E0DE"/>
<path d="M63.3455 99.8073H58.5129V125.696H63.3455V99.8073Z" fill="#96E0DE"/>
<path d="M84.1004 87H79.2678V105.242H84.1004V87Z" fill="#96E0DE"/>
<path d="M84.1004 110.036H79.2678V125.696H84.1004V110.036Z" fill="#96E0DE"/>
<path d="M94.4805 87H89.6479V114.857H94.4805V87Z" fill="#96E0DE"/>
<path d="M94.4805 119.457H89.6479V125.696H94.4805V119.457Z" fill="#96E0DE"/>
<path d="M104.858 87H100.025V125.696H104.858V87Z" fill="#96E0DE"/>
<path d="M103.09 34.3333C102.85 16.2104 88.1042 1 69.925 1C58.3437 1 47.4687 7.26042 41.4646 16.2833C38.8271 14.5271 35.6583 13.5 32.25 13.5C23.0458 13.5 15.5833 20.9625 15.5833 30.1667C15.5833 30.4854 15.6125 30.7958 15.6312 31.1125C15.6104 31.4917 15.5833 31.875 15.5833 32.25C7.275 36.2333 1 45.7021 1 55.4896C1 69.0625 12.1042 80.1667 25.6771 80.1667H76.7333C77.0208 80.1667 77.3 80.1333 77.5833 80.1229C77.8687 80.1333 78.1479 80.1667 78.4354 80.1667H98.8583C111.494 80.1667 121.833 69.8271 121.833 57.1917C121.833 46.0021 113.721 36.3354 103.09 34.3333Z" fill="#7FABDA" stroke="#FAFAFA" stroke-width="2" stroke-miterlimit="10" stroke-linecap="round"/>
</svg>
