<svg width="23" height="26" viewBox="0 0 23 26" fill="none" xmlns="http://www.w3.org/2000/svg">
<path d="M11.751 0.305478C11.3694 -0.102058 10.6548 -0.101594 10.2737 0.305478C7.23814 3.54999 0.0123291 12.0577 0.0123291 16.4017C0.0123291 21.6942 4.94696 26 11.0124 26C17.0778 26 22.0123 21.6941 22.0123 16.4017C22.0123 12.0546 14.752 3.51301 11.751 0.305478ZM11.0123 24.3353C5.99878 24.3353 1.92009 20.7763 1.92009 16.4018C1.92009 12.9755 7.92067 5.60046 11.0123 2.16501C14.1038 5.60046 20.1043 12.9756 20.1043 16.4018C20.1044 20.7763 16.0257 24.3353 11.0123 24.3353Z" fill="#FAFAFA"/>
<path d="M9.69326 7.95584C9.25485 7.7008 8.6627 7.80413 8.37043 8.18668C6.39864 10.7674 5.03799 12.9245 4.32591 14.5983C4.14263 15.0292 4.39435 15.5084 4.8882 15.6683C5.38206 15.8283 5.93106 15.6086 6.1145 15.1777C6.56855 14.1102 7.60389 12.1911 9.95773 9.11025C10.2502 8.72763 10.1317 8.21087 9.69326 7.95584Z" fill="#FAFAFA"/>
<path d="M9.24162 20.7391C8.04587 20.3662 7.04182 19.6272 6.41436 18.6581C6.15513 18.2578 5.57301 18.1167 5.11455 18.3429C4.65586 18.5691 4.49407 19.0769 4.75331 19.4771C5.60628 20.7942 6.9721 21.7992 8.59935 22.3068C9.0967 22.4616 9.64168 22.2352 9.81873 21.8032C9.99616 21.3703 9.73769 20.8938 9.24162 20.7391Z" fill="#FAFAFA"/>
</svg>
