<svg width="33" height="33" viewBox="0 0 33 33" fill="none" xmlns="http://www.w3.org/2000/svg">
<path fill-rule="evenodd" clip-rule="evenodd" d="M25.8125 13.4062C25.8125 20.258 20.258 25.8125 13.4062 25.8125C6.55447 25.8125 1 20.258 1 13.4062C1 6.55447 6.55447 1 13.4062 1C20.258 1 25.8125 6.55447 25.8125 13.4062ZM22.5258 23.2329C20.1333 25.4542 16.9284 26.8125 13.4062 26.8125C6.00218 26.8125 0 20.8103 0 13.4062C0 6.00218 6.00218 0 13.4062 0C20.8103 0 26.8125 6.00218 26.8125 13.4062C26.8125 16.9284 25.4542 20.1333 23.2329 22.5258L32.3223 31.6152C32.5176 31.8105 32.5176 32.127 32.3223 32.3223C32.127 32.5176 31.8105 32.5176 31.6152 32.3223L22.5258 23.2329Z" fill="black"/>
</svg>
