<svg width="141" height="38" viewBox="0 0 141 38" fill="none" xmlns="http://www.w3.org/2000/svg">
<path d="M2.98438 0.636363H4.15625L2.1321 12.4972C1.76515 14.6278 1.83617 16.3797 2.34517 17.7528C2.85417 19.1259 3.77746 20.1439 5.11506 20.8068C6.46449 21.4697 8.19271 21.8011 10.2997 21.8011C11.1875 21.8011 12.1345 21.7479 13.1406 21.6413C14.1468 21.523 15.1825 21.3632 16.2479 21.1619C17.325 20.9607 18.4022 20.718 19.4794 20.4339C20.5566 20.138 21.616 19.8125 22.6577 19.4574L22.4446 20.7358C21.1662 21.1264 19.9647 21.4638 18.8402 21.7479C17.7275 22.0201 16.6799 22.245 15.6974 22.4226C14.715 22.6001 13.7857 22.7304 12.9098 22.8132C12.0457 22.8961 11.2112 22.9375 10.4062 22.9375C8.02699 22.9257 6.06795 22.535 4.52912 21.7656C3.00213 20.9844 1.93679 19.8243 1.3331 18.2855C0.729404 16.7348 0.616951 14.8054 0.995739 12.4972L2.98438 0.636363ZM25.6406 0.636363H26.5994L20.5625 37H19.6037L25.6406 0.636363ZM42.3887 10.584V37H37.8477V10.584H42.3887ZM51.251 10.584V14.2461H29.1562V10.584H51.251ZM70.8799 32.4834V18.8848C70.8799 17.8431 70.6683 16.9398 70.2451 16.1748C69.8382 15.3936 69.2197 14.7913 68.3896 14.3682C67.5596 13.945 66.5342 13.7334 65.3135 13.7334C64.1742 13.7334 63.1732 13.9287 62.3105 14.3193C61.4642 14.71 60.7969 15.2227 60.3086 15.8574C59.8366 16.4922 59.6006 17.1758 59.6006 17.9082H55.084C55.084 16.9642 55.3281 16.0283 55.8164 15.1006C56.3047 14.1729 57.0046 13.3346 57.916 12.5859C58.8438 11.821 59.9505 11.2188 61.2363 10.7793C62.5384 10.3236 63.987 10.0957 65.582 10.0957C67.5026 10.0957 69.1953 10.4212 70.6602 11.0723C72.1413 11.7233 73.2969 12.708 74.127 14.0264C74.9733 15.3285 75.3965 16.9642 75.3965 18.9336V31.2383C75.3965 32.1172 75.4697 33.0531 75.6162 34.0459C75.779 35.0387 76.015 35.8932 76.3242 36.6094V37H71.6123C71.3844 36.4792 71.2054 35.7874 71.0752 34.9248C70.945 34.0459 70.8799 33.2321 70.8799 32.4834ZM71.6611 20.9844L71.71 24.1582H67.1445C65.8587 24.1582 64.7113 24.264 63.7021 24.4756C62.693 24.6709 61.8467 24.972 61.1631 25.3789C60.4795 25.7858 59.9587 26.2985 59.6006 26.917C59.2425 27.5192 59.0635 28.2272 59.0635 29.041C59.0635 29.8711 59.2507 30.6279 59.625 31.3115C59.9993 31.9951 60.5609 32.5404 61.3096 32.9473C62.0745 33.3379 63.0104 33.5332 64.1172 33.5332C65.5007 33.5332 66.7214 33.2402 67.7793 32.6543C68.8372 32.0684 69.6755 31.3522 70.2939 30.5059C70.9287 29.6595 71.2705 28.8376 71.3193 28.04L73.248 30.2129C73.1341 30.8965 72.8249 31.6533 72.3203 32.4834C71.8158 33.3135 71.1403 34.111 70.2939 34.876C69.4639 35.6247 68.471 36.2513 67.3154 36.7559C66.1761 37.2441 64.8903 37.4883 63.458 37.4883C61.6676 37.4883 60.097 37.1383 58.7461 36.4385C57.4115 35.7386 56.3698 34.8027 55.6211 33.6309C54.8887 32.4427 54.5225 31.1162 54.5225 29.6514C54.5225 28.2354 54.7992 26.9902 55.3525 25.916C55.9059 24.8255 56.7035 23.9222 57.7451 23.2061C58.7868 22.4736 60.04 21.9202 61.5049 21.5459C62.9697 21.1715 64.6055 20.9844 66.4121 20.9844H71.6611ZM97.6865 30.9941L106.671 10.584H111.017L99.249 37H96.124L84.4053 10.584H88.751L97.6865 30.9941ZM87.4326 10.584V37H82.916V10.584H87.4326ZM107.794 37V10.584H112.335V37H107.794ZM126.111 26.2045L126.537 23.7188C126.727 22.5942 127.034 21.5999 127.461 20.7358C127.899 19.8717 128.52 19.0608 129.325 18.3033C130.142 17.5339 131.201 16.7348 132.503 15.9062C133.793 15.0777 134.853 14.3497 135.681 13.7223C136.522 13.0831 137.173 12.4025 137.635 11.6804C138.096 10.9583 138.398 10.0705 138.54 9.01704C138.753 7.49006 138.611 6.14654 138.114 4.9865C137.629 3.81463 136.853 2.90317 135.788 2.25213C134.723 1.60109 133.438 1.27557 131.935 1.27557C130.278 1.27557 128.733 1.66619 127.301 2.44744C125.88 3.21686 124.691 4.24669 123.732 5.53693C122.785 6.81534 122.181 8.21212 121.921 9.72727H120.784C121.092 7.89252 121.779 6.25308 122.844 4.80895C123.921 3.36482 125.247 2.22845 126.821 1.39986C128.408 0.559421 130.112 0.139203 131.935 0.139203C133.699 0.139203 135.202 0.541666 136.445 1.34659C137.688 2.13968 138.593 3.21094 139.162 4.56037C139.742 5.89796 139.913 7.38352 139.676 9.01704C139.499 10.2718 139.167 11.3134 138.682 12.142C138.197 12.9588 137.498 13.7223 136.587 14.4325C135.687 15.1428 134.516 15.9654 133.071 16.9006C131.828 17.6937 130.84 18.4216 130.106 19.0845C129.384 19.7474 128.84 20.4399 128.473 21.1619C128.106 21.884 127.839 22.7363 127.674 23.7188L127.248 26.2045H126.111ZM124.975 37.2131C124.62 37.2131 124.33 37.0888 124.105 36.8402C123.892 36.5916 123.803 36.2898 123.838 35.9347C123.874 35.5795 124.028 35.2777 124.3 35.0291C124.584 34.7805 124.904 34.6562 125.259 34.6562C125.614 34.6562 125.898 34.7805 126.111 35.0291C126.336 35.2777 126.431 35.5795 126.395 35.9347C126.372 36.1714 126.289 36.3904 126.147 36.5916C126.016 36.781 125.845 36.929 125.632 37.0355C125.431 37.1539 125.212 37.2131 124.975 37.2131Z" fill="black"/>
</svg>
