<svg width="25" height="25" viewBox="0 0 25 25" fill="none" xmlns="http://www.w3.org/2000/svg">
<path d="M15.1643 0.284725C15.6701 0.394613 15.9913 0.893862 15.8814 1.39982C15.7715 1.9058 15.2722 2.2269 14.7662 2.11702C14.0277 1.95665 13.2695 1.875 12.5 1.875C6.63198 1.875 1.875 6.63198 1.875 12.5C1.875 18.368 6.63198 23.125 12.5 23.125C18.368 23.125 23.125 18.368 23.125 12.5C23.125 11.7629 23.0501 11.0361 22.9028 10.327C22.7975 9.8201 23.1231 9.32377 23.63 9.21847C24.137 9.11317 24.6334 9.43876 24.7386 9.94571C24.9119 10.78 25 11.6346 25 12.5C25 19.4035 19.4035 25 12.5 25C5.59644 25 0 19.4035 0 12.5C0 5.59644 5.59644 0 12.5 0C13.4035 0 14.2951 0.0960126 15.1643 0.284725Z" fill="#FAFAFA"/>
<path fill-rule="evenodd" clip-rule="evenodd" d="M14.185 10.8166C14.5511 11.1826 15.1448 11.1825 15.5108 10.8164L20.038 6.28781C20.4041 5.92165 20.404 5.32805 20.0379 4.96199C19.6716 4.59593 19.078 4.59601 18.712 4.96219L14.1848 9.49074C13.8188 9.85691 13.8188 10.4505 14.185 10.8166ZM7.77452 17.2254C8.1406 17.5915 8.73419 17.5915 9.10035 17.2255L10.6635 15.6626C11.0296 15.2966 11.0298 14.703 10.6636 14.3369C10.2975 13.9708 9.70394 13.9706 9.33779 14.3368L7.77465 15.8995C7.4085 16.2656 7.40844 16.8593 7.77452 17.2254Z" fill="#FAFAFA"/>
<path fill-rule="evenodd" clip-rule="evenodd" d="M15.9375 4.6875C15.9375 4.16974 16.3573 3.75 16.875 3.75H20.3125C20.8303 3.75 21.25 4.16974 21.25 4.6875C21.25 5.20526 20.8303 5.625 20.3125 5.625H16.875C16.3573 5.625 15.9375 5.20526 15.9375 4.6875Z" fill="#FAFAFA"/>
<path fill-rule="evenodd" clip-rule="evenodd" d="M19.375 4.6875C19.375 4.16974 19.7947 3.75 20.3125 3.75C20.8302 3.75 21.25 4.16974 21.25 4.6875V8.125C21.25 8.64276 20.8302 9.0625 20.3125 9.0625C19.7947 9.0625 19.375 8.64276 19.375 8.125V4.6875Z" fill="#FAFAFA"/>
<path fill-rule="evenodd" clip-rule="evenodd" d="M8.75 12.5C8.75 14.5711 10.4289 16.25 12.5 16.25C14.5711 16.25 16.25 14.5711 16.25 12.5C16.25 10.4289 14.5711 8.75 12.5 8.75C10.4289 8.75 8.75 10.4289 8.75 12.5ZM14.375 12.5C14.375 13.5355 13.5355 14.375 12.5 14.375C11.4645 14.375 10.625 13.5355 10.625 12.5C10.625 11.4645 11.4645 10.625 12.5 10.625C13.5355 10.625 14.375 11.4645 14.375 12.5Z" fill="#FAFAFA"/>
</svg>
