<svg width="125" height="125" viewBox="0 0 125 125" fill="none" xmlns="http://www.w3.org/2000/svg">
<path d="M123.462 62.5L111.187 73.0073L110.623 73.4903L110.922 74.17L117.434 88.9579L101.806 93.0765L101.087 93.2661L101.062 94.0095L100.512 110.162L84.642 107.116L83.9128 106.977L83.5679 107.634L76.064 121.945L63.0971 112.293L62.5 111.849L61.9029 112.293L48.936 121.945L41.4321 107.634L41.0872 106.977L40.358 107.116L24.4879 110.162L23.9378 94.0094L23.9125 93.2661L23.1933 93.0765L7.56622 88.9576L14.0777 74.1703L14.377 73.4906L13.8128 73.0076L1.53777 62.5L13.8128 51.9928L14.377 51.5098L14.0777 50.8301L7.56621 36.0421L23.1935 31.9236L23.9128 31.734L23.9381 30.9906L24.4879 14.8381L40.358 17.8836L41.0872 18.0235L41.4321 17.3659L48.936 3.05507L61.9029 12.707L62.5 13.1514L63.0971 12.707L76.0637 3.05507L83.5679 17.3659L83.9128 18.0235L84.642 17.8836L100.512 14.8381L101.062 30.9906L101.088 31.734L101.807 31.9235L117.434 36.0424L110.922 50.8298L110.623 51.5095L111.187 51.9924L123.462 62.5Z" fill="#F5C525" stroke="#FAFAFA" stroke-width="2"/>
<path d="M62.5 104.167C85.5118 104.167 104.167 85.5119 104.167 62.5C104.167 39.4882 85.5118 20.8334 62.5 20.8334C39.4881 20.8334 20.8333 39.4882 20.8333 62.5C20.8333 85.5119 39.4881 104.167 62.5 104.167Z" fill="#F8A805"/>
</svg>
