<svg width="26" height="26" viewBox="0 0 26 26" fill="none" xmlns="http://www.w3.org/2000/svg">
<path d="M1.59453 9.81094H17.1742C19.8961 9.81094 22.1051 7.73398 22.1051 5.18477C22.1051 2.63555 19.8961 0.558594 17.1742 0.558594C14.4523 0.558594 12.2434 2.63555 12.2434 5.18477C12.2434 5.75859 12.7055 6.2207 13.2793 6.2207C13.8531 6.2207 14.3152 5.75859 14.3152 5.18477C14.3152 3.77813 15.6 2.63047 17.1742 2.63047C18.7484 2.63047 20.0332 3.77305 20.0332 5.18477C20.0332 6.59141 18.7484 7.73906 17.1742 7.73906H1.59453C1.0207 7.73906 0.558594 8.20117 0.558594 8.775C0.558594 9.34883 1.0207 9.81094 1.59453 9.81094V9.81094Z" fill="#FAFAFA"/>
<path d="M17.1742 16.1891H1.59453C1.0207 16.1891 0.558594 16.6512 0.558594 17.225C0.558594 17.7989 1.0207 18.261 1.59453 18.261H17.1742C18.7484 18.261 20.0332 19.4086 20.0332 20.8153C20.0332 22.2219 18.7484 23.3696 17.1742 23.3696C16.6004 23.3696 16.1383 23.8317 16.1383 24.4055C16.1383 24.9793 16.6004 25.4414 17.1742 25.4414C19.8961 25.4414 22.1051 23.3645 22.1051 20.8153C22.1102 18.266 19.8961 16.1891 17.1742 16.1891V16.1891Z" fill="#FAFAFA"/>
<path d="M24.4055 9.00354C23.8316 9.00354 23.3695 9.46565 23.3695 10.0395C23.3695 11.1973 22.1711 12.1367 20.6984 12.1367H1.59453C1.0207 12.1367 0.558594 12.5989 0.558594 13.1727C0.558594 13.7465 1.0207 14.2086 1.59453 14.2086H20.6984C23.3137 14.2086 25.4414 12.3399 25.4414 10.0395C25.4414 9.46565 24.9793 9.00354 24.4055 9.00354V9.00354Z" fill="#FAFAFA"/>
</svg>
